<svg width="40" height="39" viewBox="0 0 40 39" fill="none" xmlns="http://www.w3.org/2000/svg">
<path d="M7.5 6C7.5 5.07174 7.86875 4.1815 8.52513 3.52513C9.1815 2.86875 10.0717 2.5 11 2.5C11.9283 2.5 12.8185 2.86875 13.4749 3.52513C14.1313 4.1815 14.5 5.07174 14.5 6C14.5 6.92826 14.1313 7.8185 13.4749 8.47487C12.8185 9.13125 11.9283 9.5 11 9.5C10.0717 9.5 9.1815 9.13125 8.52513 8.47487C7.86875 7.8185 7.5 6.92826 7.5 6ZM11 0C10.2121 -1.17411e-08 9.43185 0.155195 8.7039 0.456723C7.97595 0.758251 7.31451 1.20021 6.75736 1.75736C6.20021 2.31451 5.75825 2.97595 5.45672 3.7039C5.15519 4.43185 5 5.21207 5 6C5 6.78793 5.15519 7.56815 5.45672 8.2961C5.75825 9.02405 6.20021 9.68549 6.75736 10.2426C7.31451 10.7998 7.97595 11.2417 8.7039 11.5433C9.43185 11.8448 10.2121 12 11 12C12.5913 12 14.1174 11.3679 15.2426 10.2426C16.3679 9.11742 17 7.5913 17 6C17 4.4087 16.3679 2.88258 15.2426 1.75736C14.1174 0.632141 12.5913 2.37122e-08 11 0ZM25.5 6C25.5 5.07174 25.8687 4.1815 26.5251 3.52513C27.1815 2.86875 28.0717 2.5 29 2.5C29.9283 2.5 30.8185 2.86875 31.4749 3.52513C32.1312 4.1815 32.5 5.07174 32.5 6C32.5 6.92826 32.1312 7.8185 31.4749 8.47487C30.8185 9.13125 29.9283 9.5 29 9.5C28.0717 9.5 27.1815 9.13125 26.5251 8.47487C25.8687 7.8185 25.5 6.92826 25.5 6ZM29 0C28.2121 -1.17411e-08 27.4319 0.155195 26.7039 0.456723C25.9759 0.758251 25.3145 1.20021 24.7574 1.75736C24.2002 2.31451 23.7583 2.97595 23.4567 3.7039C23.1552 4.43185 23 5.21207 23 6C23 6.78793 23.1552 7.56815 23.4567 8.2961C23.7583 9.02405 24.2002 9.68549 24.7574 10.2426C25.3145 10.7998 25.9759 11.2417 26.7039 11.5433C27.4319 11.8448 28.2121 12 29 12C30.5913 12 32.1174 11.3679 33.2426 10.2426C34.3679 9.11742 35 7.5913 35 6C35 4.4087 34.3679 2.88258 33.2426 1.75736C32.1174 0.632141 30.5913 2.37122e-08 29 0ZM0 17.446C0 16.9935 0.0891333 16.5454 0.262311 16.1273C0.435489 15.7092 0.68932 15.3293 1.00931 15.0093C1.3293 14.6893 1.70919 14.4355 2.12727 14.2623C2.54536 14.0891 2.99346 14 3.446 14H13.07C12.6214 14.775 12.3069 15.6202 12.14 16.5H3.446C3.32177 16.5 3.19876 16.5245 3.08398 16.572C2.96921 16.6196 2.86492 16.6892 2.77708 16.7771C2.68923 16.8649 2.61955 16.9692 2.57201 17.084C2.52447 17.1988 2.5 17.3218 2.5 17.446V17.875C2.5 18.145 2.503 19.808 3.519 21.38C4.415 22.768 6.242 24.3 10.203 24.482C9.17125 24.9499 8.31026 25.7267 7.739 26.705C4.517 26.073 2.559 24.502 1.419 22.737C1.19209e-07 20.54 0 18.27 0 17.877V17.446ZM29.797 24.482C30.8288 24.9499 31.6897 25.7267 32.261 26.705C35.483 26.073 37.441 24.502 38.581 22.737C40 20.54 40 18.27 40 17.877V17.447C40.0001 16.9944 39.9111 16.5462 39.738 16.128C39.5649 15.7098 39.311 15.3298 38.991 15.0097C38.671 14.6896 38.2911 14.4356 37.873 14.2624C37.4548 14.0892 37.0066 14 36.554 14H26.93C27.37 14.763 27.69 15.605 27.86 16.5H36.554C37.076 16.5 37.5 16.924 37.5 17.446V17.875C37.5 18.145 37.497 19.808 36.481 21.38C35.585 22.768 33.758 24.3 29.797 24.482ZM20 14.5C19.0717 14.5 18.1815 14.8687 17.5251 15.5251C16.8687 16.1815 16.5 17.0717 16.5 18C16.5 18.9283 16.8687 19.8185 17.5251 20.4749C18.1815 21.1313 19.0717 21.5 20 21.5C20.9283 21.5 21.8185 21.1313 22.4749 20.4749C23.1313 19.8185 23.5 18.9283 23.5 18C23.5 17.0717 23.1313 16.1815 22.4749 15.5251C21.8185 14.8687 20.9283 14.5 20 14.5ZM14 18C14 16.4087 14.6321 14.8826 15.7574 13.7574C16.8826 12.6321 18.4087 12 20 12C21.5913 12 23.1174 12.6321 24.2426 13.7574C25.3679 14.8826 26 16.4087 26 18C26 19.5913 25.3679 21.1174 24.2426 22.2426C23.1174 23.3679 21.5913 24 20 24C18.4087 24 16.8826 23.3679 15.7574 22.2426C14.6321 21.1174 14 19.5913 14 18ZM9 29.446C9 28.5321 9.36306 27.6556 10.0093 27.0093C10.6556 26.3631 11.5321 26 12.446 26H27.554C28.4679 26 29.3444 26.3631 29.9907 27.0093C30.6369 27.6556 31 28.5321 31 29.446V29.877C31 30.271 31 32.54 29.581 34.737C28.098 37.033 25.233 39 20 39C14.767 39 11.902 37.033 10.419 34.737C9 32.54 9 30.27 9 29.877V29.446ZM12.446 28.5C12.1951 28.5 11.9545 28.5997 11.7771 28.7771C11.5997 28.9545 11.5 29.1951 11.5 29.446V29.875C11.5 30.145 11.503 31.808 12.519 33.38C13.473 34.858 15.483 36.5 20 36.5C24.517 36.5 26.527 34.858 27.481 33.38C28.497 31.808 28.5 30.145 28.5 29.875V29.446C28.5 29.1951 28.4003 28.9545 28.2229 28.7771C28.0455 28.5997 27.8049 28.5 27.554 28.5H12.446Z" fill="#F5F5F5"/>
</svg>
