<svg width="40" height="40" viewBox="0 0 40 40" fill="none" xmlns="http://www.w3.org/2000/svg">
<g clip-path="url(#clip0_6364_759)">
<path d="M40 19.9998C40 8.9541 31.0457 -0.000198364 20 -0.000198364C8.9543 -0.000198364 0 8.9541 0 19.9998C0 29.9824 7.31371 38.2564 16.875 39.7568V25.7811H11.7969V19.9998H16.875V15.5936C16.875 10.5811 19.8609 7.8123 24.4293 7.8123C26.6175 7.8123 28.9062 8.20293 28.9062 8.20293V13.1248H26.3843C23.8998 13.1248 23.125 14.6665 23.125 16.2481V19.9998H28.6719L27.7852 25.7811H23.125V39.7568C32.6863 38.2564 40 29.9824 40 19.9998Z" fill="#1877F2"/>
<path d="M27.7852 25.7812L28.6719 20H23.125V16.2483C23.125 14.6667 23.8998 13.125 26.3843 13.125H28.9063V8.20312C28.9063 8.20312 26.6175 7.8125 24.4293 7.8125C19.8609 7.8125 16.875 10.5812 16.875 15.5938V20H11.7969V25.7812H16.875V39.757C17.8932 39.9168 18.9369 40 20 40C21.0631 40 22.1068 39.9168 23.125 39.757V25.7812H27.7852Z" fill="white"/>
</g>
<defs>
<clipPath id="clip0_6364_759">
<rect width="40" height="40" fill="white"/>
</clipPath>
</defs>
</svg>
