<svg width="48" height="40" viewBox="0 0 48 40" fill="none" xmlns="http://www.w3.org/2000/svg">
<g clip-path="url(#clip0_6364_752)">
<path d="M45.0594 37.4181C45.1611 37.4191 45.2619 37.3994 45.3556 37.3602C45.4492 37.3211 45.5338 37.2632 45.6039 37.1904C45.6741 37.1175 45.7284 37.0312 45.7635 36.9367C45.7985 36.8422 45.8135 36.7416 45.8077 36.641C45.8077 36.09 45.4719 35.8267 44.783 35.8267H43.6699V38.7119H44.0886V37.4542H44.603L44.6148 37.4695L45.4132 38.7119H45.8609L45.0019 37.426L45.0594 37.4181ZM44.5753 37.1291H44.0898V36.1537H44.7051C45.023 36.1537 45.3853 36.2051 45.3853 36.6172C45.3853 37.0911 45.0186 37.1291 44.5728 37.1291" fill="#0A66C2"/>
<path d="M34.1386 33.8024H28.202V24.5969C28.202 22.4017 28.1624 19.5759 25.1143 19.5759C22.0222 19.5759 21.5492 21.9676 21.5492 24.4371V33.8018H15.6125V14.8715H21.3117V17.4585H21.3915C21.9618 16.4929 22.786 15.6986 23.7762 15.1601C24.7665 14.6216 25.8857 14.3592 27.0146 14.4006C33.0317 14.4006 34.1411 18.3195 34.1411 23.4176L34.1386 33.8024ZM8.91392 12.2839C8.23254 12.284 7.5664 12.0841 6.99979 11.7093C6.43317 11.3346 5.99154 10.8019 5.73067 10.1787C5.4698 9.55538 5.40144 8.86952 5.53425 8.20779C5.66706 7.54605 5.99508 6.93818 6.4768 6.46103C6.95852 5.98388 7.57233 5.65888 8.2406 5.52714C8.90886 5.3954 9.60156 5.46283 10.2311 5.72091C10.8607 5.97898 11.3988 6.4161 11.7775 6.97701C12.1561 7.53791 12.3583 8.1974 12.3584 8.87207C12.3585 9.32003 12.2695 9.76362 12.0964 10.1775C11.9234 10.5914 11.6697 10.9675 11.3498 11.2843C11.03 11.6011 10.6502 11.8525 10.2323 12.024C9.8143 12.1955 9.36634 12.2838 8.91392 12.2839ZM11.8823 33.8024H5.9394V14.8715H11.8823V33.8024ZM37.0983 0.00270285H2.95623C2.1813 -0.00595609 1.43456 0.290365 0.880173 0.82655C0.325783 1.36274 0.00909137 2.09492 -0.000366211 2.86221V36.8083C0.00876768 37.5759 0.325273 38.3086 0.879645 38.8454C1.43402 39.3821 2.18092 39.679 2.95623 39.6708H37.0983C37.8752 39.6805 38.6241 39.3844 39.1807 38.8477C39.7373 38.311 40.0559 37.5775 40.0666 36.8083V2.85976C40.0556 2.09095 39.7367 1.35793 39.1801 0.82176C38.6236 0.285587 37.8748 -0.00988707 37.0983 0.000252608" fill="#0A66C2"/>
<path d="M44.626 34.541C43.9037 34.5479 43.2136 34.8377 42.7065 35.3471C42.1994 35.8564 41.9167 36.5439 41.9202 37.2591C41.9237 37.9743 42.2131 38.659 42.7251 39.1635C43.237 39.6681 43.93 39.9513 44.6523 39.9513C45.3746 39.9513 46.0675 39.6681 46.5795 39.1635C47.0915 38.659 47.3809 37.9743 47.3844 37.2591C47.3879 36.5439 47.1052 35.8564 46.5981 35.3471C46.091 34.8377 45.4008 34.5479 44.6786 34.541H44.626ZM44.626 39.6416C44.1523 39.6494 43.6868 39.5179 43.2885 39.2638C42.8902 39.0097 42.577 38.6443 42.3884 38.2139C42.1998 37.7835 42.1443 37.3074 42.229 36.8458C42.3137 36.3842 42.5348 35.9579 42.8642 35.6206C43.1936 35.2834 43.6166 35.0505 44.0797 34.9513C44.5428 34.8521 45.0253 34.8912 45.466 35.0635C45.9067 35.2358 46.2859 35.5336 46.5557 35.9193C46.8254 36.305 46.9736 36.7612 46.9815 37.2303C46.9815 37.2438 46.9815 37.2566 46.9815 37.2701C46.9948 37.8855 46.7606 38.4809 46.3306 38.9254C45.9006 39.3698 45.3099 39.627 44.6884 39.6404H44.6266" fill="#0A66C2"/>
</g>
<defs>
<clipPath id="clip0_6364_752">
<rect width="47.3846" height="40" fill="white"/>
</clipPath>
</defs>
</svg>
